<svg width="100" height="100" viewBox="0 0 100 100" fill="none" xmlns="http://www.w3.org/2000/svg">
<g clip-path="url(#clip0)">
<path d="M86.5 42.2999V39.3999C86.5 19.2999 70.1 2.8999 50 2.8999C29.9 2.8999 13.5 19.2999 13.5 39.3999V42.2999C7.1 44.6999 2.5 50.8999 2.5 58.0999C2.5 67.3999 10.1 74.9999 19.4 74.9999H25.5C27.1 74.9999 28.4 73.6999 28.4 72.0999V44.0999C28.4 42.4999 27.1 41.1999 25.5 41.1999H22.7V39.3999C22.7 24.2999 34.9 12.0999 50 12.0999C65.1 12.0999 77.3 24.2999 77.3 39.3999V41.1999H74.5C72.9 41.1999 71.6 42.4999 71.6 44.0999V72.0999C71.6 73.6999 72.9 74.9999 74.5 74.9999H75.8C72.9 81.6999 66.5 86.3999 58.9 86.9999C58.5 85.0999 56.8 83.5999 54.7 83.5999H45.2C42.8 83.5999 40.9 85.4999 40.9 87.8999V92.7999C40.9 95.1999 42.8 97.0999 45.2 97.0999H54.7C56.8 97.0999 58.6 95.5999 58.9 93.4999C70.2 92.8999 79.6 85.1999 82.8 74.7999C91 73.6999 97.4 66.5999 97.4 58.0999C97.5 50.7999 92.9 44.6999 86.5 42.2999Z" fill="black"/>
</g>
<defs>
<clipPath id="clip0">
<rect width="100" height="100" fill="white"/>
</clipPath>
</defs>
</svg>
